<?xml version="1.0" encoding="UTF-8" standalone="no"?>
<!DOCTYPE svg PUBLIC "-//W3C//DTD SVG 1.1//EN"
 "http://www.w3.org/Graphics/SVG/1.1/DTD/svg11.dtd">
<!-- Generated by graphviz version 2.43.0 (0)
 -->
<!-- Title: cflow Pages: 1 -->
<svg width="1718pt" height="192pt"
 viewBox="0.00 0.00 1718.00 192.00" xmlns="http://www.w3.org/2000/svg" xmlns:xlink="http://www.w3.org/1999/xlink">
<g id="graph0" class="graph" transform="scale(1 1) rotate(0) translate(4 188)">
<title>cflow</title>
<polygon fill="white" stroke="transparent" points="-4,4 -4,-188 1714,-188 1714,4 -4,4"/>
<!-- main -->
<g id="node1" class="node">
<title>main</title>
<polygon fill="none" stroke="black" points="1026.5,-184 637.5,-184 637.5,-146 1026.5,-146 1026.5,-184"/>
<text text-anchor="middle" x="832" y="-168.8" font-family="Times,serif" font-size="14.00">int main (void)</text>
<text text-anchor="middle" x="832" y="-153.8" font-family="Times,serif" font-size="14.00">/home/runner/work/sfe/sfe/backend/hello_world.c:14</text>
</g>
<!-- getenv -->
<g id="node2" class="node">
<title>getenv</title>
<polygon fill="none" stroke="black" points="101,-109 25,-109 25,-73 101,-73 101,-109"/>
<text text-anchor="middle" x="63" y="-87.3" font-family="Times,serif" font-size="14.00">getenv()</text>
</g>
<!-- main&#45;&gt;getenv -->
<g id="edge1" class="edge">
<title>main&#45;&gt;getenv</title>
<path fill="none" stroke="black" d="M637.34,-155.81C463.83,-147.39 221.92,-132.59 111.18,-109.82"/>
<polygon fill="black" stroke="black" points="111.71,-106.36 101.19,-107.67 110.23,-113.2 111.71,-106.36"/>
</g>
<!-- response_init -->
<g id="node3" class="node">
<title>response_init</title>
<polygon fill="none" stroke="black" points="1063.5,-110 600.5,-110 600.5,-72 1063.5,-72 1063.5,-110"/>
<text text-anchor="middle" x="832" y="-94.8" font-family="Times,serif" font-size="14.00">void response_init (response_t *resp, unsigned int http_code)</text>
<text text-anchor="middle" x="832" y="-79.8" font-family="Times,serif" font-size="14.00">/home/runner/work/sfe/sfe/backend/lib/response/response.c:16</text>
</g>
<!-- main&#45;&gt;response_init -->
<g id="edge2" class="edge">
<title>main&#45;&gt;response_init</title>
<path fill="none" stroke="black" d="M832,-145.83C832,-138.13 832,-128.97 832,-120.42"/>
<polygon fill="black" stroke="black" points="835.5,-120.41 832,-110.41 828.5,-120.41 835.5,-120.41"/>
</g>
<!-- response_append_str -->
<g id="node4" class="node">
<title>response_append_str</title>
<polygon fill="none" stroke="black" points="582.5,-110 119.5,-110 119.5,-72 582.5,-72 582.5,-110"/>
<text text-anchor="middle" x="351" y="-94.8" font-family="Times,serif" font-size="14.00">void response_append_str (response_t *resp, const char *msg)</text>
<text text-anchor="middle" x="351" y="-79.8" font-family="Times,serif" font-size="14.00">/home/runner/work/sfe/sfe/backend/lib/response/response.c:49</text>
</g>
<!-- main&#45;&gt;response_append_str -->
<g id="edge3" class="edge">
<title>main&#45;&gt;response_append_str</title>
<path fill="none" stroke="black" d="M711.55,-145.97C641.52,-135.49 553.23,-122.27 481.54,-111.54"/>
<polygon fill="black" stroke="black" points="481.95,-108.06 471.54,-110.04 480.91,-114.99 481.95,-108.06"/>
</g>
<!-- response_send -->
<g id="node5" class="node">
<title>response_send</title>
<polygon fill="none" stroke="black" points="1554,-110 1082,-110 1082,-72 1554,-72 1554,-110"/>
<text text-anchor="middle" x="1318" y="-94.8" font-family="Times,serif" font-size="14.00">void response_send (response_t *resp)</text>
<text text-anchor="middle" x="1318" y="-79.8" font-family="Times,serif" font-size="14.00">/home/runner/work/sfe/sfe/backend/lib/response/response.c:107</text>
</g>
<!-- main&#45;&gt;response_send -->
<g id="edge4" class="edge">
<title>main&#45;&gt;response_send</title>
<path fill="none" stroke="black" d="M953.7,-145.97C1024.46,-135.49 1113.67,-122.27 1186.1,-111.54"/>
<polygon fill="black" stroke="black" points="1186.83,-114.97 1196.21,-110.04 1185.8,-108.05 1186.83,-114.97"/>
</g>
<!-- strcmp -->
<g id="node6" class="node">
<title>strcmp</title>
<polygon fill="none" stroke="black" points="1649.5,-109 1572.5,-109 1572.5,-73 1649.5,-73 1649.5,-109"/>
<text text-anchor="middle" x="1611" y="-87.3" font-family="Times,serif" font-size="14.00">strcmp()</text>
</g>
<!-- main&#45;&gt;strcmp -->
<g id="edge5" class="edge">
<title>main&#45;&gt;strcmp</title>
<path fill="none" stroke="black" d="M1026.9,-155.86C1202.85,-147.41 1449.62,-132.53 1562.41,-109.68"/>
<polygon fill="black" stroke="black" points="1563.19,-113.09 1572.25,-107.59 1561.74,-106.24 1563.19,-113.09"/>
</g>
<!-- json_object_put -->
<g id="node7" class="node">
<title>json_object_put</title>
<polygon fill="none" stroke="black" points="550.5,-36 413.5,-36 413.5,0 550.5,0 550.5,-36"/>
<text text-anchor="middle" x="482" y="-14.3" font-family="Times,serif" font-size="14.00">json_object_put()</text>
</g>
<!-- response_init&#45;&gt;json_object_put -->
<g id="edge6" class="edge">
<title>response_init&#45;&gt;json_object_put</title>
<path fill="none" stroke="black" d="M739.07,-71.99C689.04,-62.2 626.01,-49.68 560.93,-36.17"/>
<polygon fill="black" stroke="black" points="561.39,-32.7 550.89,-34.09 559.97,-39.55 561.39,-32.7"/>
</g>
<!-- json_object_new_object -->
<g id="node8" class="node">
<title>json_object_new_object</title>
<polygon fill="none" stroke="black" points="1176.5,-36 983.5,-36 983.5,0 1176.5,0 1176.5,-36"/>
<text text-anchor="middle" x="1080" y="-14.3" font-family="Times,serif" font-size="14.00">json_object_new_object()</text>
</g>
<!-- response_init&#45;&gt;json_object_new_object -->
<g id="edge7" class="edge">
<title>response_init&#45;&gt;json_object_new_object</title>
<path fill="none" stroke="black" d="M894.9,-71.99C930.19,-61.89 974.27,-49.27 1010.56,-38.88"/>
<polygon fill="black" stroke="black" points="1011.93,-42.13 1020.58,-36.01 1010,-35.4 1011.93,-42.13"/>
</g>
<!-- json_object_object_add -->
<g id="node9" class="node">
<title>json_object_object_add</title>
<polygon fill="none" stroke="black" points="965,-36 775,-36 775,0 965,0 965,-36"/>
<text text-anchor="middle" x="870" y="-14.3" font-family="Times,serif" font-size="14.00">json_object_object_add()</text>
</g>
<!-- response_init&#45;&gt;json_object_object_add -->
<g id="edge8" class="edge">
<title>response_init&#45;&gt;json_object_object_add</title>
<path fill="none" stroke="black" d="M841.79,-71.72C846.16,-63.54 851.39,-53.76 856.16,-44.86"/>
<polygon fill="black" stroke="black" points="859.27,-46.47 860.9,-36 853.09,-43.17 859.27,-46.47"/>
</g>
<!-- json_object_new_int -->
<g id="node10" class="node">
<title>json_object_new_int</title>
<polygon fill="none" stroke="black" points="1363.5,-36 1194.5,-36 1194.5,0 1363.5,0 1363.5,-36"/>
<text text-anchor="middle" x="1279" y="-14.3" font-family="Times,serif" font-size="14.00">json_object_new_int()</text>
</g>
<!-- response_init&#45;&gt;json_object_new_int -->
<g id="edge9" class="edge">
<title>response_init&#45;&gt;json_object_new_int</title>
<path fill="none" stroke="black" d="M955.47,-71.95C1020.64,-62.22 1102.21,-49.73 1184.44,-36.07"/>
<polygon fill="black" stroke="black" points="1185.18,-39.5 1194.47,-34.4 1184.03,-32.59 1185.18,-39.5"/>
</g>
<!-- json_object_new_array -->
<g id="node11" class="node">
<title>json_object_new_array</title>
<polygon fill="none" stroke="black" points="757,-36 569,-36 569,0 757,0 757,-36"/>
<text text-anchor="middle" x="663" y="-14.3" font-family="Times,serif" font-size="14.00">json_object_new_array()</text>
</g>
<!-- response_init&#45;&gt;json_object_new_array -->
<g id="edge10" class="edge">
<title>response_init&#45;&gt;json_object_new_array</title>
<path fill="none" stroke="black" d="M788.92,-71.9C765.78,-62.18 737.14,-50.15 713.02,-40.01"/>
<polygon fill="black" stroke="black" points="714.25,-36.74 703.68,-36.09 711.54,-43.19 714.25,-36.74"/>
</g>
<!-- response_append_str&#45;&gt;json_object_put -->
<g id="edge15" class="edge">
<title>response_append_str&#45;&gt;json_object_put</title>
<path fill="none" stroke="black" d="M384.4,-71.9C401.78,-62.48 423.16,-50.89 441.48,-40.96"/>
<polygon fill="black" stroke="black" points="443.34,-43.93 450.47,-36.09 440.01,-37.78 443.34,-43.93"/>
</g>
<!-- response_append_str&#45;&gt;json_object_object_add -->
<g id="edge12" class="edge">
<title>response_append_str&#45;&gt;json_object_object_add</title>
<path fill="none" stroke="black" d="M498.57,-71.99C575.21,-62.34 670.62,-49.89 764.81,-36.15"/>
<polygon fill="black" stroke="black" points="765.42,-39.6 774.8,-34.69 764.4,-32.67 765.42,-39.6"/>
</g>
<!-- response_append_str&#45;&gt;json_object_new_array -->
<g id="edge11" class="edge">
<title>response_append_str&#45;&gt;json_object_new_array</title>
<path fill="none" stroke="black" d="M430.13,-71.99C475.38,-61.7 532.12,-48.78 578.27,-38.28"/>
<polygon fill="black" stroke="black" points="579.27,-41.64 588.25,-36.01 577.72,-34.82 579.27,-41.64"/>
</g>
<!-- json_object_new_string -->
<g id="node12" class="node">
<title>json_object_new_string</title>
<polygon fill="none" stroke="black" points="192,-36 0,-36 0,0 192,0 192,-36"/>
<text text-anchor="middle" x="96" y="-14.3" font-family="Times,serif" font-size="14.00">json_object_new_string()</text>
</g>
<!-- response_append_str&#45;&gt;json_object_new_string -->
<g id="edge13" class="edge">
<title>response_append_str&#45;&gt;json_object_new_string</title>
<path fill="none" stroke="black" d="M286.32,-71.99C249.89,-61.85 204.33,-49.16 166.92,-38.75"/>
<polygon fill="black" stroke="black" points="167.67,-35.32 157.1,-36.01 165.79,-42.07 167.67,-35.32"/>
</g>
<!-- json_object_array_add -->
<g id="node13" class="node">
<title>json_object_array_add</title>
<polygon fill="none" stroke="black" points="395.5,-36 210.5,-36 210.5,0 395.5,0 395.5,-36"/>
<text text-anchor="middle" x="303" y="-14.3" font-family="Times,serif" font-size="14.00">json_object_array_add()</text>
</g>
<!-- response_append_str&#45;&gt;json_object_array_add -->
<g id="edge14" class="edge">
<title>response_append_str&#45;&gt;json_object_array_add</title>
<path fill="none" stroke="black" d="M338.64,-71.72C333,-63.37 326.22,-53.35 320.1,-44.3"/>
<polygon fill="black" stroke="black" points="323,-42.33 314.5,-36 317.2,-46.25 323,-42.33"/>
</g>
<!-- response_send&#45;&gt;json_object_new_object -->
<g id="edge16" class="edge">
<title>response_send&#45;&gt;json_object_new_object</title>
<path fill="none" stroke="black" d="M1257.63,-71.99C1223.77,-61.89 1181.47,-49.27 1146.64,-38.88"/>
<polygon fill="black" stroke="black" points="1147.61,-35.52 1137.02,-36.01 1145.61,-42.22 1147.61,-35.52"/>
</g>
<!-- response_send&#45;&gt;json_object_object_add -->
<g id="edge17" class="edge">
<title>response_send&#45;&gt;json_object_object_add</title>
<path fill="none" stroke="black" d="M1202.13,-72C1138.01,-61.99 1056.6,-49.21 975.14,-36.18"/>
<polygon fill="black" stroke="black" points="975.64,-32.71 965.21,-34.59 974.53,-39.63 975.64,-32.71"/>
</g>
<!-- response_send&#45;&gt;json_object_new_int -->
<g id="edge18" class="edge">
<title>response_send&#45;&gt;json_object_new_int</title>
<path fill="none" stroke="black" d="M1307.96,-71.72C1303.47,-63.54 1298.1,-53.76 1293.21,-44.86"/>
<polygon fill="black" stroke="black" points="1296.22,-43.08 1288.34,-36 1290.09,-46.45 1296.22,-43.08"/>
</g>
<!-- response_send&#45;&gt;json_object_new_array -->
<g id="edge19" class="edge">
<title>response_send&#45;&gt;json_object_new_array</title>
<path fill="none" stroke="black" d="M1099.69,-71.99C1000.95,-63.01 882.59,-51.1 767.33,-36.13"/>
<polygon fill="black" stroke="black" points="767.63,-32.64 757.26,-34.81 766.72,-39.58 767.63,-32.64"/>
</g>
<!-- json_object_to_json_string_ext -->
<g id="node14" class="node">
<title>json_object_to_json_string_ext</title>
<polygon fill="none" stroke="black" points="1710,-36 1468,-36 1468,0 1710,0 1710,-36"/>
<text text-anchor="middle" x="1589" y="-14.3" font-family="Times,serif" font-size="14.00">json_object_to_json_string_ext()</text>
</g>
<!-- response_send&#45;&gt;json_object_to_json_string_ext -->
<g id="edge20" class="edge">
<title>response_send&#45;&gt;json_object_to_json_string_ext</title>
<path fill="none" stroke="black" d="M1386.74,-71.99C1425.7,-61.78 1474.49,-49 1514.39,-38.55"/>
<polygon fill="black" stroke="black" points="1515.28,-41.93 1524.07,-36.01 1513.51,-35.16 1515.28,-41.93"/>
</g>
<!-- printf -->
<g id="node15" class="node">
<title>printf</title>
<polygon fill="none" stroke="black" points="1450,-36 1382,-36 1382,0 1450,0 1450,-36"/>
<text text-anchor="middle" x="1416" y="-14.3" font-family="Times,serif" font-size="14.00">printf()</text>
</g>
<!-- response_send&#45;&gt;printf -->
<g id="edge21" class="edge">
<title>response_send&#45;&gt;printf</title>
<path fill="none" stroke="black" d="M1342.98,-71.9C1355.45,-62.87 1370.67,-51.84 1383.99,-42.19"/>
<polygon fill="black" stroke="black" points="1386.37,-44.79 1392.41,-36.09 1382.26,-39.12 1386.37,-44.79"/>
</g>
</g>
</svg>
