<?xml version="1.0" encoding="UTF-8" standalone="no"?>
<!DOCTYPE svg PUBLIC "-//W3C//DTD SVG 1.1//EN"
 "http://www.w3.org/Graphics/SVG/1.1/DTD/svg11.dtd">
<!-- Generated by graphviz version 2.43.0 (0)
 -->
<!-- Title: cflow Pages: 1 -->
<svg width="3872pt" height="266pt"
 viewBox="0.00 0.00 3872.00 266.00" xmlns="http://www.w3.org/2000/svg" xmlns:xlink="http://www.w3.org/1999/xlink">
<g id="graph0" class="graph" transform="scale(1 1) rotate(0) translate(4 262)">
<title>cflow</title>
<polygon fill="white" stroke="transparent" points="-4,4 -4,-262 3868,-262 3868,4 -4,4"/>
<!-- main -->
<g id="node1" class="node">
<title>main</title>
<polygon fill="none" stroke="black" points="1843.5,-258 1494.5,-258 1494.5,-220 1843.5,-220 1843.5,-258"/>
<text text-anchor="middle" x="1669" y="-242.8" font-family="Times,serif" font-size="14.00">int main (void)</text>
<text text-anchor="middle" x="1669" y="-227.8" font-family="Times,serif" font-size="14.00">/home/runner/work/sfe/sfe/backend/result.c:37</text>
</g>
<!-- test_fail -->
<g id="node2" class="node">
<title>test_fail</title>
<polygon fill="none" stroke="black" points="478,-184 0,-184 0,-146 478,-146 478,-184"/>
<text text-anchor="middle" x="239" y="-168.8" font-family="Times,serif" font-size="14.00">result_t *test_fail (void)</text>
<text text-anchor="middle" x="239" y="-153.8" font-family="Times,serif" font-size="14.00">/home/runner/work/sfe/sfe/backend/lib/result_test/result_test.c:3</text>
</g>
<!-- main&#45;&gt;test_fail -->
<g id="edge1" class="edge">
<title>main&#45;&gt;test_fail</title>
<path fill="none" stroke="black" d="M1494.19,-231.48C1265.58,-222.62 852.34,-205.46 488.43,-184.08"/>
<polygon fill="black" stroke="black" points="488.41,-180.57 478.22,-183.47 488,-187.56 488.41,-180.57"/>
</g>
<!-- result_to_json -->
<g id="node3" class="node">
<title>result_to_json</title>
<polygon fill="none" stroke="black" points="1878,-184 1460,-184 1460,-146 1878,-146 1878,-184"/>
<text text-anchor="middle" x="1669" y="-168.8" font-family="Times,serif" font-size="14.00">struct json_object *result_to_json (const result_t *res)</text>
<text text-anchor="middle" x="1669" y="-153.8" font-family="Times,serif" font-size="14.00">/home/runner/work/sfe/sfe/backend/lib/result/result.c:94</text>
</g>
<!-- main&#45;&gt;result_to_json -->
<g id="edge2" class="edge">
<title>main&#45;&gt;result_to_json</title>
<path fill="none" stroke="black" d="M1669,-219.83C1669,-212.13 1669,-202.97 1669,-194.42"/>
<polygon fill="black" stroke="black" points="1672.5,-194.41 1669,-184.41 1665.5,-194.41 1672.5,-194.41"/>
</g>
<!-- result_free -->
<g id="node4" class="node">
<title>result_free</title>
<polygon fill="none" stroke="black" points="914,-184 496,-184 496,-146 914,-146 914,-184"/>
<text text-anchor="middle" x="705" y="-168.8" font-family="Times,serif" font-size="14.00">void result_free (result_t *res)</text>
<text text-anchor="middle" x="705" y="-153.8" font-family="Times,serif" font-size="14.00">/home/runner/work/sfe/sfe/backend/lib/result/result.c:57</text>
</g>
<!-- main&#45;&gt;result_free -->
<g id="edge3" class="edge">
<title>main&#45;&gt;result_free</title>
<path fill="none" stroke="black" d="M1494.49,-225.87C1345.79,-215.41 1126.09,-199.69 924.34,-184.1"/>
<polygon fill="black" stroke="black" points="924.37,-180.59 914.13,-183.31 923.83,-187.57 924.37,-180.59"/>
</g>
<!-- response_init -->
<g id="node5" class="node">
<title>response_init</title>
<polygon fill="none" stroke="black" points="2359.5,-184 1896.5,-184 1896.5,-146 2359.5,-146 2359.5,-184"/>
<text text-anchor="middle" x="2128" y="-168.8" font-family="Times,serif" font-size="14.00">void response_init (response_t *resp, unsigned int http_code)</text>
<text text-anchor="middle" x="2128" y="-153.8" font-family="Times,serif" font-size="14.00">/home/runner/work/sfe/sfe/backend/lib/response/response.c:16</text>
</g>
<!-- main&#45;&gt;response_init -->
<g id="edge4" class="edge">
<title>main&#45;&gt;response_init</title>
<path fill="none" stroke="black" d="M1783.94,-219.97C1850.63,-209.51 1934.68,-196.32 2003.01,-185.61"/>
<polygon fill="black" stroke="black" points="2003.64,-189.05 2012.97,-184.04 2002.55,-182.14 2003.64,-189.05"/>
</g>
<!-- response_append_json -->
<g id="node6" class="node">
<title>response_append_json</title>
<polygon fill="none" stroke="black" points="3373.5,-184 2858.5,-184 2858.5,-146 3373.5,-146 3373.5,-184"/>
<text text-anchor="middle" x="3116" y="-168.8" font-family="Times,serif" font-size="14.00">void response_append_json (response_t *resp, struct json_object *obj)</text>
<text text-anchor="middle" x="3116" y="-153.8" font-family="Times,serif" font-size="14.00">/home/runner/work/sfe/sfe/backend/lib/response/response.c:78</text>
</g>
<!-- main&#45;&gt;response_append_json -->
<g id="edge5" class="edge">
<title>main&#45;&gt;response_append_json</title>
<path fill="none" stroke="black" d="M1843.65,-231.21C2072.05,-222.06 2484.92,-204.58 2848.17,-184.1"/>
<polygon fill="black" stroke="black" points="2848.58,-187.58 2858.36,-183.52 2848.18,-180.59 2848.58,-187.58"/>
</g>
<!-- json_object_put -->
<g id="node7" class="node">
<title>json_object_put</title>
<polygon fill="none" stroke="black" points="1745.5,-109 1608.5,-109 1608.5,-73 1745.5,-73 1745.5,-109"/>
<text text-anchor="middle" x="1677" y="-87.3" font-family="Times,serif" font-size="14.00">json_object_put()</text>
</g>
<!-- main&#45;&gt;json_object_put -->
<g id="edge6" class="edge">
<title>main&#45;&gt;json_object_put</title>
<path fill="none" stroke="black" d="M1521.79,-219.96C1465.31,-206.76 1420.84,-184.21 1451,-146 1469.27,-122.85 1540.4,-108.53 1598.05,-100.5"/>
<polygon fill="black" stroke="black" points="1598.83,-103.93 1608.27,-99.12 1597.89,-96.99 1598.83,-103.93"/>
</g>
<!-- response_send -->
<g id="node8" class="node">
<title>response_send</title>
<polygon fill="none" stroke="black" points="3864,-184 3392,-184 3392,-146 3864,-146 3864,-184"/>
<text text-anchor="middle" x="3628" y="-168.8" font-family="Times,serif" font-size="14.00">void response_send (response_t *resp)</text>
<text text-anchor="middle" x="3628" y="-153.8" font-family="Times,serif" font-size="14.00">/home/runner/work/sfe/sfe/backend/lib/response/response.c:107</text>
</g>
<!-- main&#45;&gt;response_send -->
<g id="edge7" class="edge">
<title>main&#45;&gt;response_send</title>
<path fill="none" stroke="black" d="M1843.67,-234.91C2151.94,-228.92 2812.91,-213.68 3381.63,-184.06"/>
<polygon fill="black" stroke="black" points="3381.87,-187.55 3391.68,-183.53 3381.51,-180.56 3381.87,-187.55"/>
</g>
<!-- response_free -->
<g id="node9" class="node">
<title>response_free</title>
<polygon fill="none" stroke="black" points="1404,-184 932,-184 932,-146 1404,-146 1404,-184"/>
<text text-anchor="middle" x="1168" y="-168.8" font-family="Times,serif" font-size="14.00">void response_free (response_t *resp)</text>
<text text-anchor="middle" x="1168" y="-153.8" font-family="Times,serif" font-size="14.00">/home/runner/work/sfe/sfe/backend/lib/response/response.c:150</text>
</g>
<!-- main&#45;&gt;response_free -->
<g id="edge8" class="edge">
<title>main&#45;&gt;response_free</title>
<path fill="none" stroke="black" d="M1543.55,-219.97C1470.45,-209.47 1378.26,-196.22 1303.51,-185.47"/>
<polygon fill="black" stroke="black" points="1303.95,-182 1293.55,-184.04 1302.95,-188.93 1303.95,-182"/>
</g>
<!-- response_append_str -->
<g id="node10" class="node">
<title>response_append_str</title>
<polygon fill="none" stroke="black" points="2840.5,-184 2377.5,-184 2377.5,-146 2840.5,-146 2840.5,-184"/>
<text text-anchor="middle" x="2609" y="-168.8" font-family="Times,serif" font-size="14.00">void response_append_str (response_t *resp, const char *msg)</text>
<text text-anchor="middle" x="2609" y="-153.8" font-family="Times,serif" font-size="14.00">/home/runner/work/sfe/sfe/backend/lib/response/response.c:49</text>
</g>
<!-- main&#45;&gt;response_append_str -->
<g id="edge9" class="edge">
<title>main&#45;&gt;response_append_str</title>
<path fill="none" stroke="black" d="M1843.6,-224.63C1990.91,-213.34 2203.31,-197.07 2367.02,-184.53"/>
<polygon fill="black" stroke="black" points="2367.53,-188.01 2377.23,-183.75 2366.99,-181.03 2367.53,-188.01"/>
</g>
<!-- result_failure -->
<g id="node11" class="node">
<title>result_failure</title>
<polygon fill="none" stroke="black" points="599,-109 477,-109 477,-73 599,-73 599,-109"/>
<text text-anchor="middle" x="538" y="-87.3" font-family="Times,serif" font-size="14.00">result_failure()</text>
</g>
<!-- test_fail&#45;&gt;result_failure -->
<g id="edge10" class="edge">
<title>test_fail&#45;&gt;result_failure</title>
<path fill="none" stroke="black" d="M316.38,-145.99C360.54,-135.63 416.92,-122.28 467,-110 467.1,-109.98 467.2,-109.95 467.3,-109.93"/>
<polygon fill="black" stroke="black" points="467.96,-113.37 476.82,-107.57 466.28,-106.57 467.96,-113.37"/>
</g>
<!-- result_add_extra -->
<g id="node12" class="node">
<title>result_add_extra</title>
<polygon fill="none" stroke="black" points="458.5,-110 19.5,-110 19.5,-72 458.5,-72 458.5,-110"/>
<text text-anchor="middle" x="239" y="-94.8" font-family="Times,serif" font-size="14.00">void result_add_extra (result_t *res, const char *format, ...)</text>
<text text-anchor="middle" x="239" y="-79.8" font-family="Times,serif" font-size="14.00">/home/runner/work/sfe/sfe/backend/lib/result/result.c:71</text>
</g>
<!-- test_fail&#45;&gt;result_add_extra -->
<g id="edge11" class="edge">
<title>test_fail&#45;&gt;result_add_extra</title>
<path fill="none" stroke="black" d="M239,-145.83C239,-138.13 239,-128.97 239,-120.42"/>
<polygon fill="black" stroke="black" points="242.5,-120.41 239,-110.41 235.5,-120.41 242.5,-120.41"/>
</g>
<!-- result_to_json&#45;&gt;json_object_put -->
<g id="edge22" class="edge">
<title>result_to_json&#45;&gt;json_object_put</title>
<path fill="none" stroke="black" d="M1671.02,-145.83C1671.9,-137.89 1672.95,-128.41 1673.93,-119.63"/>
<polygon fill="black" stroke="black" points="1677.44,-119.74 1675.06,-109.42 1670.48,-118.97 1677.44,-119.74"/>
</g>
<!-- json_object_new_object -->
<g id="node19" class="node">
<title>json_object_new_object</title>
<polygon fill="none" stroke="black" points="2409.5,-109 2216.5,-109 2216.5,-73 2409.5,-73 2409.5,-109"/>
<text text-anchor="middle" x="2313" y="-87.3" font-family="Times,serif" font-size="14.00">json_object_new_object()</text>
</g>
<!-- result_to_json&#45;&gt;json_object_new_object -->
<g id="edge18" class="edge">
<title>result_to_json&#45;&gt;json_object_new_object</title>
<path fill="none" stroke="black" d="M1878.25,-146.34C1975.16,-137.33 2092.02,-125.3 2206.29,-110.05"/>
<polygon fill="black" stroke="black" points="2206.83,-113.5 2216.28,-108.7 2205.9,-106.57 2206.83,-113.5"/>
</g>
<!-- json_object_object_add -->
<g id="node20" class="node">
<title>json_object_object_add</title>
<polygon fill="none" stroke="black" points="2634,-109 2444,-109 2444,-73 2634,-73 2634,-109"/>
<text text-anchor="middle" x="2539" y="-87.3" font-family="Times,serif" font-size="14.00">json_object_object_add()</text>
</g>
<!-- result_to_json&#45;&gt;json_object_object_add -->
<g id="edge19" class="edge">
<title>result_to_json&#45;&gt;json_object_object_add</title>
<path fill="none" stroke="black" d="M1878.13,-146.67C1881.11,-146.44 1884.07,-146.22 1887,-146 2123.32,-128.25 2183.4,-135.6 2419,-110 2423.79,-109.48 2428.68,-108.91 2433.61,-108.3"/>
<polygon fill="black" stroke="black" points="2434.31,-111.74 2443.79,-107 2433.42,-104.8 2434.31,-111.74"/>
</g>
<!-- json_object_new_string -->
<g id="node21" class="node">
<title>json_object_new_string</title>
<polygon fill="none" stroke="black" points="1979,-109 1787,-109 1787,-73 1979,-73 1979,-109"/>
<text text-anchor="middle" x="1883" y="-87.3" font-family="Times,serif" font-size="14.00">json_object_new_string()</text>
</g>
<!-- result_to_json&#45;&gt;json_object_new_string -->
<g id="edge20" class="edge">
<title>result_to_json&#45;&gt;json_object_new_string</title>
<path fill="none" stroke="black" d="M1722.73,-145.92C1753.13,-135.69 1791.25,-122.87 1822.68,-112.3"/>
<polygon fill="black" stroke="black" points="1823.84,-115.6 1832.2,-109.09 1821.61,-108.96 1823.84,-115.6"/>
</g>
<!-- json_object_new_int -->
<g id="node22" class="node">
<title>json_object_new_int</title>
<polygon fill="none" stroke="black" points="2198.5,-109 2029.5,-109 2029.5,-73 2198.5,-73 2198.5,-109"/>
<text text-anchor="middle" x="2114" y="-87.3" font-family="Times,serif" font-size="14.00">json_object_new_int()</text>
</g>
<!-- result_to_json&#45;&gt;json_object_new_int -->
<g id="edge21" class="edge">
<title>result_to_json&#45;&gt;json_object_new_int</title>
<path fill="none" stroke="black" d="M1780.43,-145.97C1853.92,-134.08 1949.15,-118.67 2019.04,-107.36"/>
<polygon fill="black" stroke="black" points="2019.85,-110.78 2029.16,-105.73 2018.73,-103.87 2019.85,-110.78"/>
</g>
<!-- free -->
<g id="node18" class="node">
<title>free</title>
<polygon fill="none" stroke="black" points="631,-36 575,-36 575,0 631,0 631,-36"/>
<text text-anchor="middle" x="603" y="-14.3" font-family="Times,serif" font-size="14.00">free()</text>
</g>
<!-- result_free&#45;&gt;free -->
<g id="edge23" class="edge">
<title>result_free&#45;&gt;free</title>
<path fill="none" stroke="black" d="M692.29,-145.93C674.38,-120.47 641.63,-73.92 621.16,-44.82"/>
<polygon fill="black" stroke="black" points="623.85,-42.56 615.23,-36.39 618.13,-46.59 623.85,-42.56"/>
</g>
<!-- response_init&#45;&gt;json_object_put -->
<g id="edge24" class="edge">
<title>response_init&#45;&gt;json_object_put</title>
<path fill="none" stroke="black" d="M2006.41,-145.95C1939.04,-135.77 1853.81,-122.6 1778,-110 1770.73,-108.79 1763.17,-107.5 1755.61,-106.19"/>
<polygon fill="black" stroke="black" points="1756.14,-102.73 1745.69,-104.46 1754.94,-109.63 1756.14,-102.73"/>
</g>
<!-- response_init&#45;&gt;json_object_new_object -->
<g id="edge25" class="edge">
<title>response_init&#45;&gt;json_object_new_object</title>
<path fill="none" stroke="black" d="M2174.68,-145.83C2200.52,-135.78 2232.73,-123.24 2259.57,-112.79"/>
<polygon fill="black" stroke="black" points="2261.14,-115.94 2269.19,-109.05 2258.61,-109.41 2261.14,-115.94"/>
</g>
<!-- response_init&#45;&gt;json_object_object_add -->
<g id="edge26" class="edge">
<title>response_init&#45;&gt;json_object_object_add</title>
<path fill="none" stroke="black" d="M2230.92,-145.97C2292.87,-135.12 2371.56,-121.33 2433.9,-110.41"/>
<polygon fill="black" stroke="black" points="2434.51,-113.86 2443.76,-108.68 2433.31,-106.96 2434.51,-113.86"/>
</g>
<!-- response_init&#45;&gt;json_object_new_int -->
<g id="edge27" class="edge">
<title>response_init&#45;&gt;json_object_new_int</title>
<path fill="none" stroke="black" d="M2124.47,-145.83C2122.91,-137.81 2121.04,-128.2 2119.32,-119.34"/>
<polygon fill="black" stroke="black" points="2122.73,-118.57 2117.39,-109.42 2115.86,-119.9 2122.73,-118.57"/>
</g>
<!-- json_object_new_array -->
<g id="node23" class="node">
<title>json_object_new_array</title>
<polygon fill="none" stroke="black" points="2840,-109 2652,-109 2652,-73 2840,-73 2840,-109"/>
<text text-anchor="middle" x="2746" y="-87.3" font-family="Times,serif" font-size="14.00">json_object_new_array()</text>
</g>
<!-- response_init&#45;&gt;json_object_new_array -->
<g id="edge28" class="edge">
<title>response_init&#45;&gt;json_object_new_array</title>
<path fill="none" stroke="black" d="M2330.79,-145.97C2422.91,-136.98 2533.47,-125.08 2641.62,-110.15"/>
<polygon fill="black" stroke="black" points="2642.32,-113.58 2651.74,-108.74 2641.35,-106.65 2642.32,-113.58"/>
</g>
<!-- response_append_json&#45;&gt;json_object_put -->
<g id="edge33" class="edge">
<title>response_append_json&#45;&gt;json_object_put</title>
<path fill="none" stroke="black" d="M2858.37,-146.43C2855.56,-146.28 2852.77,-146.14 2850,-146 2373.9,-121.9 2252.09,-159.95 1778,-110 1770.67,-109.23 1763.07,-108.24 1755.49,-107.11"/>
<polygon fill="black" stroke="black" points="1755.96,-103.64 1745.54,-105.57 1754.89,-110.56 1755.96,-103.64"/>
</g>
<!-- response_append_json&#45;&gt;json_object_object_add -->
<g id="edge30" class="edge">
<title>response_append_json&#45;&gt;json_object_object_add</title>
<path fill="none" stroke="black" d="M2936.56,-145.98C2850.8,-136.76 2746.49,-124.67 2644.08,-110.12"/>
<polygon fill="black" stroke="black" points="2644.57,-106.65 2634.18,-108.7 2643.58,-113.58 2644.57,-106.65"/>
</g>
<!-- response_append_json&#45;&gt;json_object_new_array -->
<g id="edge29" class="edge">
<title>response_append_json&#45;&gt;json_object_new_array</title>
<path fill="none" stroke="black" d="M3023.11,-145.92C2968.28,-135.26 2898.97,-121.77 2843.38,-110.95"/>
<polygon fill="black" stroke="black" points="2844,-107.5 2833.52,-109.03 2842.66,-114.38 2844,-107.5"/>
</g>
<!-- json_object_get -->
<g id="node24" class="node">
<title>json_object_get</title>
<polygon fill="none" stroke="black" points="3198.5,-109 3061.5,-109 3061.5,-73 3198.5,-73 3198.5,-109"/>
<text text-anchor="middle" x="3130" y="-87.3" font-family="Times,serif" font-size="14.00">json_object_get()</text>
</g>
<!-- response_append_json&#45;&gt;json_object_get -->
<g id="edge31" class="edge">
<title>response_append_json&#45;&gt;json_object_get</title>
<path fill="none" stroke="black" d="M3119.53,-145.83C3121.09,-137.81 3122.96,-128.2 3124.68,-119.34"/>
<polygon fill="black" stroke="black" points="3128.14,-119.9 3126.61,-109.42 3121.27,-118.57 3128.14,-119.9"/>
</g>
<!-- json_object_array_add -->
<g id="node25" class="node">
<title>json_object_array_add</title>
<polygon fill="none" stroke="black" points="3043.5,-109 2858.5,-109 2858.5,-73 3043.5,-73 3043.5,-109"/>
<text text-anchor="middle" x="2951" y="-87.3" font-family="Times,serif" font-size="14.00">json_object_array_add()</text>
</g>
<!-- response_append_json&#45;&gt;json_object_array_add -->
<g id="edge32" class="edge">
<title>response_append_json&#45;&gt;json_object_array_add</title>
<path fill="none" stroke="black" d="M3074.36,-145.83C3051.52,-135.86 3023.09,-123.46 2999.28,-113.07"/>
<polygon fill="black" stroke="black" points="3000.64,-109.84 2990.07,-109.05 2997.84,-116.26 3000.64,-109.84"/>
</g>
<!-- response_send&#45;&gt;json_object_new_object -->
<g id="edge34" class="edge">
<title>response_send&#45;&gt;json_object_new_object</title>
<path fill="none" stroke="black" d="M3392,-146.51C3388.98,-146.34 3385.98,-146.17 3383,-146 2962.02,-122.55 2854.85,-148.83 2435,-110 2430,-109.54 2424.89,-109.01 2419.73,-108.43"/>
<polygon fill="black" stroke="black" points="2420.12,-104.95 2409.78,-107.26 2419.3,-111.9 2420.12,-104.95"/>
</g>
<!-- response_send&#45;&gt;json_object_object_add -->
<g id="edge35" class="edge">
<title>response_send&#45;&gt;json_object_object_add</title>
<path fill="none" stroke="black" d="M3392,-146.56C3388.98,-146.37 3385.98,-146.18 3383,-146 3057.7,-126.14 2972.04,-145.74 2644.41,-110.08"/>
<polygon fill="black" stroke="black" points="2644.47,-106.56 2634.15,-108.95 2643.71,-113.52 2644.47,-106.56"/>
</g>
<!-- response_send&#45;&gt;json_object_new_int -->
<g id="edge36" class="edge">
<title>response_send&#45;&gt;json_object_new_int</title>
<path fill="none" stroke="black" d="M3391.68,-146.46C3388.77,-146.3 3385.87,-146.15 3383,-146 2864.11,-119.01 2728.42,-167.25 2208.57,-110.07"/>
<polygon fill="black" stroke="black" points="2208.88,-106.59 2198.56,-108.96 2208.11,-113.54 2208.88,-106.59"/>
</g>
<!-- response_send&#45;&gt;json_object_new_array -->
<g id="edge37" class="edge">
<title>response_send&#45;&gt;json_object_new_array</title>
<path fill="none" stroke="black" d="M3391.99,-146.64C3388.98,-146.42 3385.98,-146.21 3383,-146 3146.16,-129.3 3085.74,-138.28 2850,-110 2849.9,-109.99 2849.8,-109.98 2849.69,-109.96"/>
<polygon fill="black" stroke="black" points="2850.4,-106.53 2840.04,-108.73 2849.51,-113.47 2850.4,-106.53"/>
</g>
<!-- json_object_to_json_string_ext -->
<g id="node26" class="node">
<title>json_object_to_json_string_ext</title>
<polygon fill="none" stroke="black" points="3835,-109 3593,-109 3593,-73 3835,-73 3835,-109"/>
<text text-anchor="middle" x="3714" y="-87.3" font-family="Times,serif" font-size="14.00">json_object_to_json_string_ext()</text>
</g>
<!-- response_send&#45;&gt;json_object_to_json_string_ext -->
<g id="edge38" class="edge">
<title>response_send&#45;&gt;json_object_to_json_string_ext</title>
<path fill="none" stroke="black" d="M3649.7,-145.83C3660.62,-136.69 3673.98,-125.5 3685.7,-115.7"/>
<polygon fill="black" stroke="black" points="3688.07,-118.27 3693.49,-109.17 3683.58,-112.91 3688.07,-118.27"/>
</g>
<!-- printf -->
<g id="node27" class="node">
<title>printf</title>
<polygon fill="none" stroke="black" points="3575,-109 3507,-109 3507,-73 3575,-73 3575,-109"/>
<text text-anchor="middle" x="3541" y="-87.3" font-family="Times,serif" font-size="14.00">printf()</text>
</g>
<!-- response_send&#45;&gt;printf -->
<g id="edge39" class="edge">
<title>response_send&#45;&gt;printf</title>
<path fill="none" stroke="black" d="M3606.05,-145.83C3595,-136.69 3581.48,-125.5 3569.63,-115.7"/>
<polygon fill="black" stroke="black" points="3571.68,-112.85 3561.75,-109.17 3567.22,-118.24 3571.68,-112.85"/>
</g>
<!-- response_free&#45;&gt;json_object_put -->
<g id="edge40" class="edge">
<title>response_free&#45;&gt;json_object_put</title>
<path fill="none" stroke="black" d="M1295.46,-145.97C1390.48,-132.53 1517.29,-114.59 1598.07,-103.17"/>
<polygon fill="black" stroke="black" points="1598.76,-106.6 1608.17,-101.74 1597.78,-99.67 1598.76,-106.6"/>
</g>
<!-- response_append_str&#45;&gt;json_object_put -->
<g id="edge45" class="edge">
<title>response_append_str&#45;&gt;json_object_put</title>
<path fill="none" stroke="black" d="M2377.48,-146.65C2374.3,-146.43 2371.14,-146.21 2368,-146 2105.89,-128.22 2038.86,-141.1 1778,-110 1770.68,-109.13 1763.09,-108.07 1755.51,-106.9"/>
<polygon fill="black" stroke="black" points="1755.99,-103.44 1745.57,-105.32 1754.89,-110.35 1755.99,-103.44"/>
</g>
<!-- response_append_str&#45;&gt;json_object_object_add -->
<g id="edge42" class="edge">
<title>response_append_str&#45;&gt;json_object_object_add</title>
<path fill="none" stroke="black" d="M2591.34,-145.83C2582.77,-137.02 2572.35,-126.31 2563.07,-116.76"/>
<polygon fill="black" stroke="black" points="2565.41,-114.15 2555.93,-109.42 2560.4,-119.03 2565.41,-114.15"/>
</g>
<!-- response_append_str&#45;&gt;json_object_new_string -->
<g id="edge43" class="edge">
<title>response_append_str&#45;&gt;json_object_new_string</title>
<path fill="none" stroke="black" d="M2389.92,-145.97C2278.97,-136.32 2142.21,-123.63 2020,-110 2009.97,-108.88 1999.54,-107.65 1989.11,-106.36"/>
<polygon fill="black" stroke="black" points="1989.48,-102.88 1979.12,-105.11 1988.61,-109.82 1989.48,-102.88"/>
</g>
<!-- response_append_str&#45;&gt;json_object_new_array -->
<g id="edge41" class="edge">
<title>response_append_str&#45;&gt;json_object_new_array</title>
<path fill="none" stroke="black" d="M2643.57,-145.83C2662.05,-136.12 2684.93,-124.1 2704.38,-113.88"/>
<polygon fill="black" stroke="black" points="2706.1,-116.92 2713.33,-109.17 2702.85,-110.73 2706.1,-116.92"/>
</g>
<!-- response_append_str&#45;&gt;json_object_array_add -->
<g id="edge44" class="edge">
<title>response_append_str&#45;&gt;json_object_array_add</title>
<path fill="none" stroke="black" d="M2694.86,-145.92C2745.22,-135.32 2808.81,-121.93 2860.03,-111.15"/>
<polygon fill="black" stroke="black" points="2861.04,-114.52 2870.11,-109.03 2859.6,-107.67 2861.04,-114.52"/>
</g>
<!-- va_start -->
<g id="node13" class="node">
<title>va_start</title>
<polygon fill="none" stroke="black" points="281.5,-36 196.5,-36 196.5,0 281.5,0 281.5,-36"/>
<text text-anchor="middle" x="239" y="-14.3" font-family="Times,serif" font-size="14.00">va_start()</text>
</g>
<!-- result_add_extra&#45;&gt;va_start -->
<g id="edge12" class="edge">
<title>result_add_extra&#45;&gt;va_start</title>
<path fill="none" stroke="black" d="M239,-71.72C239,-63.97 239,-54.79 239,-46.27"/>
<polygon fill="black" stroke="black" points="242.5,-46 239,-36 235.5,-46 242.5,-46"/>
</g>
<!-- va_copy -->
<g id="node14" class="node">
<title>va_copy</title>
<polygon fill="none" stroke="black" points="382.5,-36 299.5,-36 299.5,0 382.5,0 382.5,-36"/>
<text text-anchor="middle" x="341" y="-14.3" font-family="Times,serif" font-size="14.00">va_copy()</text>
</g>
<!-- result_add_extra&#45;&gt;va_copy -->
<g id="edge13" class="edge">
<title>result_add_extra&#45;&gt;va_copy</title>
<path fill="none" stroke="black" d="M265,-71.9C278.1,-62.78 294.13,-51.63 308.08,-41.92"/>
<polygon fill="black" stroke="black" points="310.24,-44.68 316.45,-36.09 306.24,-38.93 310.24,-44.68"/>
</g>
<!-- vsnprintf -->
<g id="node15" class="node">
<title>vsnprintf</title>
<polygon fill="none" stroke="black" points="493,-36 401,-36 401,0 493,0 493,-36"/>
<text text-anchor="middle" x="447" y="-14.3" font-family="Times,serif" font-size="14.00">vsnprintf()</text>
</g>
<!-- result_add_extra&#45;&gt;vsnprintf -->
<g id="edge14" class="edge">
<title>result_add_extra&#45;&gt;vsnprintf</title>
<path fill="none" stroke="black" d="M291.76,-71.99C322.06,-61.65 360.09,-48.67 390.93,-38.14"/>
<polygon fill="black" stroke="black" points="392.34,-41.36 400.67,-34.81 390.08,-34.73 392.34,-41.36"/>
</g>
<!-- va_end -->
<g id="node16" class="node">
<title>va_end</title>
<polygon fill="none" stroke="black" points="85.5,-36 8.5,-36 8.5,0 85.5,0 85.5,-36"/>
<text text-anchor="middle" x="47" y="-14.3" font-family="Times,serif" font-size="14.00">va_end()</text>
</g>
<!-- result_add_extra&#45;&gt;va_end -->
<g id="edge15" class="edge">
<title>result_add_extra&#45;&gt;va_end</title>
<path fill="none" stroke="black" d="M190.05,-71.9C160.91,-61.12 124.07,-47.5 95.08,-36.78"/>
<polygon fill="black" stroke="black" points="96.16,-33.45 85.57,-33.26 93.73,-40.01 96.16,-33.45"/>
</g>
<!-- malloc -->
<g id="node17" class="node">
<title>malloc</title>
<polygon fill="none" stroke="black" points="178,-36 104,-36 104,0 178,0 178,-36"/>
<text text-anchor="middle" x="141" y="-14.3" font-family="Times,serif" font-size="14.00">malloc()</text>
</g>
<!-- result_add_extra&#45;&gt;malloc -->
<g id="edge16" class="edge">
<title>result_add_extra&#45;&gt;malloc</title>
<path fill="none" stroke="black" d="M214.02,-71.9C201.55,-62.87 186.33,-51.84 173.01,-42.19"/>
<polygon fill="black" stroke="black" points="174.74,-39.12 164.59,-36.09 170.63,-44.79 174.74,-39.12"/>
</g>
<!-- result_add_extra&#45;&gt;free -->
<g id="edge17" class="edge">
<title>result_add_extra&#45;&gt;free</title>
<path fill="none" stroke="black" d="M331.32,-71.99C406.91,-57.25 510.01,-37.14 564.92,-26.43"/>
<polygon fill="black" stroke="black" points="565.77,-29.83 574.91,-24.48 564.43,-22.96 565.77,-29.83"/>
</g>
</g>
</svg>
